<mxfile host="app.diagrams.net" agent="Mozilla/5.0 (X11; Ubuntu; Linux x86_64; rv:129.0) Gecko/20100101 Firefox/129.0" version="24.7.8">
  <diagram name="Page-1" id="jBMb6OYjZwXQilKCJYLi">
    <mxGraphModel dx="1646" dy="795" grid="1" gridSize="10" guides="1" tooltips="1" connect="1" arrows="1" fold="1" page="0" pageScale="1" pageWidth="850" pageHeight="1100" math="0" shadow="0">
      <root>
        <mxCell id="0" />
        <mxCell id="1" parent="0" />
        <mxCell id="3fWUCPbQucgpRjpTzbk8-1" value="&lt;b&gt;&lt;font face=&quot;Roboto Mono&quot; data-font-src=&quot;https://fonts.googleapis.com/css?family=Roboto+Mono&quot;&gt;Pipeline Diagram&lt;br&gt;&lt;/font&gt;&lt;/b&gt;" style="text;html=1;align=left;verticalAlign=middle;whiteSpace=wrap;rounded=0;" parent="1" vertex="1">
          <mxGeometry x="30" y="90" width="140" height="30" as="geometry" />
        </mxCell>
        <mxCell id="3fWUCPbQucgpRjpTzbk8-15" value="" style="rounded=0;whiteSpace=wrap;html=1;fontFamily=Roboto Mono;fontSource=https%3A%2F%2Ffonts.googleapis.com%2Fcss%3Ffamily%3DRoboto%2BMono;strokeWidth=2;fillColor=#f5f5f5;fontColor=#333333;strokeColor=#666666;align=left;horizontal=1;verticalAlign=top;" parent="1" vertex="1">
          <mxGeometry x="30" y="130" width="450" height="860" as="geometry" />
        </mxCell>
        <mxCell id="3fWUCPbQucgpRjpTzbk8-17" value="&lt;div&gt;Running on prem on an Ubuntu machine&lt;br&gt;&lt;/div&gt;" style="text;html=1;align=left;verticalAlign=middle;resizable=0;points=[];autosize=1;strokeColor=none;fillColor=none;fontFamily=Roboto Mono;fontSource=https%3A%2F%2Ffonts.googleapis.com%2Fcss%3Ffamily%3DRoboto%2BMono;" parent="1" vertex="1">
          <mxGeometry x="70" y="140" width="280" height="30" as="geometry" />
        </mxCell>
        <mxCell id="3fWUCPbQucgpRjpTzbk8-27" value="" style="shape=image;imageAspect=0;aspect=fixed;verticalLabelPosition=bottom;verticalAlign=top;image=https://cdn.jsdelivr.net/gh/devicons/devicon@latest/icons/ubuntu/ubuntu-original.svg;" parent="1" vertex="1">
          <mxGeometry x="40" y="140" width="30" height="30" as="geometry" />
        </mxCell>
        <mxCell id="3fWUCPbQucgpRjpTzbk8-30" value="" style="rounded=0;whiteSpace=wrap;html=1;fontFamily=Roboto Mono;fontSource=https%3A%2F%2Ffonts.googleapis.com%2Fcss%3Ffamily%3DRoboto%2BMono;strokeWidth=2;align=left;horizontal=1;verticalAlign=top;dashed=1;dashPattern=8 8;" parent="1" vertex="1">
          <mxGeometry x="50" y="350" width="410" height="580" as="geometry" />
        </mxCell>
        <mxCell id="3fWUCPbQucgpRjpTzbk8-47" value="" style="group;verticalAlign=middle;" parent="1" vertex="1" connectable="0">
          <mxGeometry x="40" y="180" width="430" height="140" as="geometry" />
        </mxCell>
        <mxCell id="3fWUCPbQucgpRjpTzbk8-46" value="" style="group" parent="3fWUCPbQucgpRjpTzbk8-47" vertex="1" connectable="0">
          <mxGeometry width="429.99999999999994" height="140" as="geometry" />
        </mxCell>
        <mxCell id="3fWUCPbQucgpRjpTzbk8-21" value="" style="rounded=0;whiteSpace=wrap;html=1;fontFamily=Roboto Mono;fontSource=https%3A%2F%2Ffonts.googleapis.com%2Fcss%3Ffamily%3DRoboto%2BMono;strokeWidth=2;fillColor=#f5f5f5;fontColor=#333333;strokeColor=#666666;" parent="3fWUCPbQucgpRjpTzbk8-46" vertex="1">
          <mxGeometry width="429.99999999999994" height="140" as="geometry" />
        </mxCell>
        <mxCell id="3fWUCPbQucgpRjpTzbk8-24" value="&lt;div&gt;Dockerized airflow instance&lt;br&gt;&lt;/div&gt;" style="text;html=1;align=left;verticalAlign=middle;resizable=0;points=[];autosize=1;strokeColor=none;fillColor=none;fontFamily=Roboto Mono;fontSource=https%3A%2F%2Ffonts.googleapis.com%2Fcss%3Ffamily%3DRoboto%2BMono;" parent="3fWUCPbQucgpRjpTzbk8-46" vertex="1">
          <mxGeometry x="64.5" y="10" width="220" height="30" as="geometry" />
        </mxCell>
        <mxCell id="3fWUCPbQucgpRjpTzbk8-28" value="" style="shape=image;imageAspect=0;aspect=fixed;verticalLabelPosition=bottom;verticalAlign=top;image=https://cdn.jsdelivr.net/gh/devicons/devicon@latest/icons/docker/docker-plain.svg;" parent="3fWUCPbQucgpRjpTzbk8-46" vertex="1">
          <mxGeometry x="21.5" y="10" width="30" height="30" as="geometry" />
        </mxCell>
        <mxCell id="3fWUCPbQucgpRjpTzbk8-45" value="" style="group" parent="3fWUCPbQucgpRjpTzbk8-47" vertex="1" connectable="0">
          <mxGeometry x="10.75" y="50" width="408.49999999999994" height="80" as="geometry" />
        </mxCell>
        <mxCell id="3fWUCPbQucgpRjpTzbk8-22" value="&lt;div&gt;Apache Airflow&lt;br&gt;&lt;/div&gt;" style="rounded=0;whiteSpace=wrap;html=1;fontFamily=Roboto Mono;fontSource=https%3A%2F%2Ffonts.googleapis.com%2Fcss%3Ffamily%3DRoboto%2BMono;strokeWidth=2;fillColor=#e1d5e7;strokeColor=#9673a6;verticalAlign=bottom;" parent="3fWUCPbQucgpRjpTzbk8-45" vertex="1">
          <mxGeometry width="408.49999999999994" height="80" as="geometry" />
        </mxCell>
        <mxCell id="3fWUCPbQucgpRjpTzbk8-26" value="" style="shape=image;imageAspect=0;aspect=fixed;verticalLabelPosition=bottom;verticalAlign=top;image=https://cdn.jsdelivr.net/gh/devicons/devicon@latest/icons/apacheairflow/apacheairflow-original.svg;" parent="3fWUCPbQucgpRjpTzbk8-45" vertex="1">
          <mxGeometry x="182.74999999999997" y="10" width="40" height="40" as="geometry" />
        </mxCell>
        <mxCell id="3fWUCPbQucgpRjpTzbk8-49" style="edgeStyle=orthogonalEdgeStyle;rounded=0;orthogonalLoop=1;jettySize=auto;html=1;fillColor=#e1d5e7;strokeColor=#9673a6;" parent="1" source="3fWUCPbQucgpRjpTzbk8-22" target="3fWUCPbQucgpRjpTzbk8-30" edge="1">
          <mxGeometry relative="1" as="geometry" />
        </mxCell>
        <mxCell id="3fWUCPbQucgpRjpTzbk8-43" value="" style="group" parent="1" vertex="1" connectable="0">
          <mxGeometry x="70" y="370" width="176.25" height="150" as="geometry" />
        </mxCell>
        <mxCell id="3fWUCPbQucgpRjpTzbk8-35" value="" style="rounded=0;whiteSpace=wrap;html=1;fontFamily=Roboto Mono;fontSource=https%3A%2F%2Ffonts.googleapis.com%2Fcss%3Ffamily%3DRoboto%2BMono;strokeWidth=2;fillColor=#f5f5f5;fontColor=#333333;strokeColor=#666666;" parent="3fWUCPbQucgpRjpTzbk8-43" vertex="1">
          <mxGeometry width="166.5" height="150" as="geometry" />
        </mxCell>
        <mxCell id="3fWUCPbQucgpRjpTzbk8-31" value="NOAA Tides and Currents API" style="rounded=0;whiteSpace=wrap;html=1;fontFamily=Roboto Mono;fontSource=https%3A%2F%2Ffonts.googleapis.com%2Fcss%3Ffamily%3DRoboto%2BMono;strokeWidth=2;fillColor=#fff2cc;strokeColor=#d6b656;fontSize=10;" parent="3fWUCPbQucgpRjpTzbk8-43" vertex="1">
          <mxGeometry x="18.5" y="39.705882352941174" width="129.5" height="97.05882352941177" as="geometry" />
        </mxCell>
        <mxCell id="3fWUCPbQucgpRjpTzbk8-36" value="" style="shape=image;imageAspect=0;aspect=fixed;verticalLabelPosition=bottom;verticalAlign=top;image=https://cdn.jsdelivr.net/gh/devicons/devicon@latest/icons/docker/docker-plain.svg;" parent="3fWUCPbQucgpRjpTzbk8-43" vertex="1">
          <mxGeometry x="9.25" y="8.823529411764707" width="26.470588235294116" height="26.470588235294116" as="geometry" />
        </mxCell>
        <mxCell id="3fWUCPbQucgpRjpTzbk8-38" value="&lt;font style=&quot;font-size: 10px;&quot;&gt;grabtide container&lt;/font&gt;" style="text;html=1;align=left;verticalAlign=middle;resizable=0;points=[];autosize=1;strokeColor=none;fillColor=none;fontFamily=Roboto Mono;fontSource=https%3A%2F%2Ffonts.googleapis.com%2Fcss%3Ffamily%3DRoboto%2BMono;fontSize=11;" parent="3fWUCPbQucgpRjpTzbk8-43" vertex="1">
          <mxGeometry x="46.25" y="8.823529411764707" width="130" height="30" as="geometry" />
        </mxCell>
        <mxCell id="3fWUCPbQucgpRjpTzbk8-44" value="" style="group" parent="1" vertex="1" connectable="0">
          <mxGeometry x="280" y="370" width="176.25" height="150" as="geometry" />
        </mxCell>
        <mxCell id="3fWUCPbQucgpRjpTzbk8-74" value="" style="group" parent="3fWUCPbQucgpRjpTzbk8-44" vertex="1" connectable="0">
          <mxGeometry width="176.25" height="150" as="geometry" />
        </mxCell>
        <mxCell id="3fWUCPbQucgpRjpTzbk8-39" value="" style="rounded=0;whiteSpace=wrap;html=1;fontFamily=Roboto Mono;fontSource=https%3A%2F%2Ffonts.googleapis.com%2Fcss%3Ffamily%3DRoboto%2BMono;strokeWidth=2;fillColor=#f5f5f5;fontColor=#333333;strokeColor=#666666;" parent="3fWUCPbQucgpRjpTzbk8-74" vertex="1">
          <mxGeometry width="166.5" height="150" as="geometry" />
        </mxCell>
        <mxCell id="3fWUCPbQucgpRjpTzbk8-40" value="Coastsat software toolkit" style="rounded=0;whiteSpace=wrap;html=1;fontFamily=Roboto Mono;fontSource=https%3A%2F%2Ffonts.googleapis.com%2Fcss%3Ffamily%3DRoboto%2BMono;strokeWidth=2;fillColor=#fff2cc;strokeColor=#d6b656;fontSize=10;" parent="3fWUCPbQucgpRjpTzbk8-74" vertex="1">
          <mxGeometry x="18.5" y="39.705882352941174" width="129.5" height="97.05882352941177" as="geometry" />
        </mxCell>
        <mxCell id="3fWUCPbQucgpRjpTzbk8-41" value="" style="shape=image;imageAspect=0;aspect=fixed;verticalLabelPosition=bottom;verticalAlign=top;image=https://cdn.jsdelivr.net/gh/devicons/devicon@latest/icons/docker/docker-plain.svg;" parent="3fWUCPbQucgpRjpTzbk8-74" vertex="1">
          <mxGeometry x="9.25" y="8.823529411764707" width="26.470588235294116" height="26.470588235294116" as="geometry" />
        </mxCell>
        <mxCell id="3fWUCPbQucgpRjpTzbk8-42" value="&lt;font style=&quot;font-size: 10px;&quot;&gt;Coastsat container&lt;/font&gt;" style="text;html=1;align=left;verticalAlign=middle;resizable=0;points=[];autosize=1;strokeColor=none;fillColor=none;fontFamily=Roboto Mono;fontSource=https%3A%2F%2Ffonts.googleapis.com%2Fcss%3Ffamily%3DRoboto%2BMono;fontSize=11;" parent="3fWUCPbQucgpRjpTzbk8-74" vertex="1">
          <mxGeometry x="46.25" y="8.823529411764707" width="130" height="30" as="geometry" />
        </mxCell>
        <mxCell id="3fWUCPbQucgpRjpTzbk8-66" value="" style="group" parent="1" vertex="1" connectable="0">
          <mxGeometry x="70" y="550" width="380" height="190.00000000000006" as="geometry" />
        </mxCell>
        <mxCell id="3fWUCPbQucgpRjpTzbk8-61" value="" style="rounded=0;whiteSpace=wrap;html=1;fontFamily=Roboto Mono;fontSource=https%3A%2F%2Ffonts.googleapis.com%2Fcss%3Ffamily%3DRoboto%2BMono;strokeWidth=2;fillColor=#f5f5f5;fontColor=#333333;strokeColor=#666666;" parent="3fWUCPbQucgpRjpTzbk8-66" vertex="1">
          <mxGeometry width="380" height="150" as="geometry" />
        </mxCell>
        <mxCell id="3fWUCPbQucgpRjpTzbk8-65" value="" style="group" parent="3fWUCPbQucgpRjpTzbk8-66" vertex="1" connectable="0">
          <mxGeometry x="17.416666666666668" y="8.823529411764696" width="344.48809523809524" height="181.17647058823536" as="geometry" />
        </mxCell>
        <mxCell id="3fWUCPbQucgpRjpTzbk8-63" value="" style="shape=image;imageAspect=0;aspect=fixed;verticalLabelPosition=bottom;verticalAlign=top;image=https://cdn.jsdelivr.net/gh/devicons/devicon@latest/icons/docker/docker-plain.svg;" parent="3fWUCPbQucgpRjpTzbk8-65" vertex="1">
          <mxGeometry width="23.949579831932773" height="23.949579831932773" as="geometry" />
        </mxCell>
        <mxCell id="3fWUCPbQucgpRjpTzbk8-64" value="&lt;font style=&quot;font-size: 10px;&quot;&gt;Coastsat container&lt;/font&gt;" style="text;html=1;align=left;verticalAlign=middle;resizable=0;points=[];autosize=1;strokeColor=none;fillColor=none;fontFamily=Roboto Mono;fontSource=https%3A%2F%2Ffonts.googleapis.com%2Fcss%3Ffamily%3DRoboto%2BMono;fontSize=11;" parent="3fWUCPbQucgpRjpTzbk8-65" vertex="1">
          <mxGeometry x="33.476190476190474" width="130" height="30" as="geometry" />
        </mxCell>
        <mxCell id="3fWUCPbQucgpRjpTzbk8-51" value="Transform and Create Dataframes" style="rounded=0;whiteSpace=wrap;html=1;fontFamily=Roboto Mono;fontSource=https%3A%2F%2Ffonts.googleapis.com%2Fcss%3Ffamily%3DRoboto%2BMono;strokeWidth=2;fillColor=#d5e8d4;strokeColor=#82b366;" parent="3fWUCPbQucgpRjpTzbk8-65" vertex="1">
          <mxGeometry y="31.176470588235304" width="344.48809523809524" height="100" as="geometry" />
        </mxCell>
        <mxCell id="3fWUCPbQucgpRjpTzbk8-67" style="edgeStyle=orthogonalEdgeStyle;rounded=0;orthogonalLoop=1;jettySize=auto;html=1;exitX=0.5;exitY=1;exitDx=0;exitDy=0;entryX=0.5;entryY=0;entryDx=0;entryDy=0;fillColor=#fff2cc;strokeColor=#d6b656;strokeWidth=2;" parent="1" source="3fWUCPbQucgpRjpTzbk8-31" target="3fWUCPbQucgpRjpTzbk8-51" edge="1">
          <mxGeometry relative="1" as="geometry">
            <Array as="points">
              <mxPoint x="153" y="540" />
              <mxPoint x="260" y="540" />
            </Array>
          </mxGeometry>
        </mxCell>
        <mxCell id="3fWUCPbQucgpRjpTzbk8-68" style="edgeStyle=orthogonalEdgeStyle;rounded=0;orthogonalLoop=1;jettySize=auto;html=1;fillColor=#fff2cc;strokeColor=#d6b656;strokeWidth=2;" parent="1" source="3fWUCPbQucgpRjpTzbk8-40" target="3fWUCPbQucgpRjpTzbk8-51" edge="1">
          <mxGeometry relative="1" as="geometry">
            <Array as="points">
              <mxPoint x="363" y="540" />
              <mxPoint x="260" y="540" />
            </Array>
          </mxGeometry>
        </mxCell>
        <mxCell id="3fWUCPbQucgpRjpTzbk8-79" value="" style="group" parent="1" vertex="1" connectable="0">
          <mxGeometry x="176.75" y="730" width="166.5" height="180" as="geometry" />
        </mxCell>
        <mxCell id="3fWUCPbQucgpRjpTzbk8-73" value="" style="rounded=0;whiteSpace=wrap;html=1;fontFamily=Roboto Mono;fontSource=https%3A%2F%2Ffonts.googleapis.com%2Fcss%3Ffamily%3DRoboto%2BMono;strokeWidth=2;fillColor=#f5f5f5;fontColor=#333333;strokeColor=#666666;" parent="3fWUCPbQucgpRjpTzbk8-79" vertex="1">
          <mxGeometry width="166.5" height="180" as="geometry" />
        </mxCell>
        <mxCell id="3fWUCPbQucgpRjpTzbk8-58" value="" style="group" parent="3fWUCPbQucgpRjpTzbk8-79" vertex="1" connectable="0">
          <mxGeometry x="32.91" y="21.176470588235293" width="100" height="105.88235294117648" as="geometry" />
        </mxCell>
        <mxCell id="3fWUCPbQucgpRjpTzbk8-56" value="PostgreSQL" style="rounded=0;whiteSpace=wrap;html=1;fontFamily=Roboto Mono;fontSource=https%3A%2F%2Ffonts.googleapis.com%2Fcss%3Ffamily%3DRoboto%2BMono;strokeWidth=2;fillColor=#dae8fc;strokeColor=#6c8ebf;verticalAlign=bottom;" parent="3fWUCPbQucgpRjpTzbk8-58" vertex="1">
          <mxGeometry width="100" height="105.88235294117648" as="geometry" />
        </mxCell>
        <mxCell id="3fWUCPbQucgpRjpTzbk8-57" value="" style="shape=image;imageAspect=0;aspect=fixed;verticalLabelPosition=bottom;verticalAlign=top;image=https://cdn.jsdelivr.net/gh/devicons/devicon@latest/icons/postgresql/postgresql-plain.svg;" parent="3fWUCPbQucgpRjpTzbk8-58" vertex="1">
          <mxGeometry x="25" y="26.47058823529412" width="50" height="50" as="geometry" />
        </mxCell>
        <mxCell id="3fWUCPbQucgpRjpTzbk8-76" value="" style="shape=image;imageAspect=0;aspect=fixed;verticalLabelPosition=bottom;verticalAlign=top;image=https://cdn.jsdelivr.net/gh/devicons/devicon@latest/icons/docker/docker-plain.svg;" parent="3fWUCPbQucgpRjpTzbk8-79" vertex="1">
          <mxGeometry x="20" y="142.9449134948097" width="26.470588235294116" height="26.470588235294116" as="geometry" />
        </mxCell>
        <mxCell id="3fWUCPbQucgpRjpTzbk8-77" value="Shoreline DB&lt;font style=&quot;font-size: 10px;&quot;&gt; &lt;br&gt;container&lt;/font&gt;" style="text;html=1;align=left;verticalAlign=middle;resizable=0;points=[];autosize=1;strokeColor=none;fillColor=none;fontFamily=Roboto Mono;fontSource=https%3A%2F%2Ffonts.googleapis.com%2Fcss%3Ffamily%3DRoboto%2BMono;fontSize=11;" parent="3fWUCPbQucgpRjpTzbk8-79" vertex="1">
          <mxGeometry x="57" y="137.65079584775086" width="100" height="40" as="geometry" />
        </mxCell>
        <mxCell id="3fWUCPbQucgpRjpTzbk8-80" style="edgeStyle=orthogonalEdgeStyle;rounded=0;orthogonalLoop=1;jettySize=auto;html=1;entryX=0.5;entryY=0;entryDx=0;entryDy=0;fillColor=#d5e8d4;strokeColor=#82b366;" parent="1" source="3fWUCPbQucgpRjpTzbk8-51" target="3fWUCPbQucgpRjpTzbk8-56" edge="1">
          <mxGeometry relative="1" as="geometry" />
        </mxCell>
        <mxCell id="3fWUCPbQucgpRjpTzbk8-82" value="" style="group" parent="1" vertex="1" connectable="0">
          <mxGeometry x="490" y="130" width="140" height="200" as="geometry" />
        </mxCell>
        <mxCell id="3fWUCPbQucgpRjpTzbk8-3" value="Legend" style="text;html=1;align=center;verticalAlign=middle;resizable=0;points=[];autosize=1;strokeColor=none;fillColor=none;fontFamily=Roboto Mono;fontSource=https%3A%2F%2Ffonts.googleapis.com%2Fcss%3Ffamily%3DRoboto%2BMono;fontStyle=1" parent="3fWUCPbQucgpRjpTzbk8-82" vertex="1">
          <mxGeometry width="70" height="30" as="geometry" />
        </mxCell>
        <mxCell id="3fWUCPbQucgpRjpTzbk8-5" value="&lt;div&gt;Infrastracture&lt;/div&gt;" style="rounded=0;whiteSpace=wrap;html=1;fontFamily=Roboto Mono;fontSource=https%3A%2F%2Ffonts.googleapis.com%2Fcss%3Ffamily%3DRoboto%2BMono;strokeWidth=2;fillColor=#f5f5f5;fontColor=#333333;strokeColor=#666666;" parent="3fWUCPbQucgpRjpTzbk8-82" vertex="1">
          <mxGeometry x="10" y="30" width="130" height="20" as="geometry" />
        </mxCell>
        <mxCell id="3fWUCPbQucgpRjpTzbk8-8" value="&lt;div&gt;Scheduler&lt;/div&gt;" style="rounded=0;whiteSpace=wrap;html=1;fontFamily=Roboto Mono;fontSource=https%3A%2F%2Ffonts.googleapis.com%2Fcss%3Ffamily%3DRoboto%2BMono;strokeWidth=2;fillColor=#e1d5e7;strokeColor=#9673a6;" parent="3fWUCPbQucgpRjpTzbk8-82" vertex="1">
          <mxGeometry x="10" y="60" width="130" height="20" as="geometry" />
        </mxCell>
        <mxCell id="3fWUCPbQucgpRjpTzbk8-10" value="Extract" style="rounded=0;whiteSpace=wrap;html=1;fontFamily=Roboto Mono;fontSource=https%3A%2F%2Ffonts.googleapis.com%2Fcss%3Ffamily%3DRoboto%2BMono;strokeWidth=2;fillColor=#fff2cc;strokeColor=#d6b656;" parent="3fWUCPbQucgpRjpTzbk8-82" vertex="1">
          <mxGeometry x="10" y="90" width="130" height="20" as="geometry" />
        </mxCell>
        <mxCell id="3fWUCPbQucgpRjpTzbk8-12" value="&lt;div&gt;Visualization&lt;/div&gt;" style="rounded=0;whiteSpace=wrap;html=1;fontFamily=Roboto Mono;fontSource=https%3A%2F%2Ffonts.googleapis.com%2Fcss%3Ffamily%3DRoboto%2BMono;strokeWidth=2;fillColor=#ffe6cc;strokeColor=#d79b00;" parent="3fWUCPbQucgpRjpTzbk8-82" vertex="1">
          <mxGeometry x="10" y="180" width="130" height="20" as="geometry" />
        </mxCell>
        <mxCell id="3fWUCPbQucgpRjpTzbk8-13" value="&lt;div&gt;Load&lt;/div&gt;" style="rounded=0;whiteSpace=wrap;html=1;fontFamily=Roboto Mono;fontSource=https%3A%2F%2Ffonts.googleapis.com%2Fcss%3Ffamily%3DRoboto%2BMono;strokeWidth=2;fillColor=#dae8fc;strokeColor=#6c8ebf;" parent="3fWUCPbQucgpRjpTzbk8-82" vertex="1">
          <mxGeometry x="10" y="150" width="130" height="20" as="geometry" />
        </mxCell>
        <mxCell id="3fWUCPbQucgpRjpTzbk8-14" value="Transform" style="rounded=0;whiteSpace=wrap;html=1;fontFamily=Roboto Mono;fontSource=https%3A%2F%2Ffonts.googleapis.com%2Fcss%3Ffamily%3DRoboto%2BMono;strokeWidth=2;fillColor=#d5e8d4;strokeColor=#82b366;" parent="3fWUCPbQucgpRjpTzbk8-82" vertex="1">
          <mxGeometry x="10" y="120" width="130" height="20" as="geometry" />
        </mxCell>
      </root>
    </mxGraphModel>
  </diagram>
</mxfile>
